<svg xmlns="http://www.w3.org/2000/svg" xmlns:xlink="http://www.w3.org/1999/xlink" viewBox="0 0 157.06 106.93"><defs><linearGradient id="a" x1="-8.62" y1="60.04" x2="138.81" y2="60.04" gradientTransform="matrix(-0.99, -0.16, -0.16, 0.99, 162.74, 12.6)" gradientUnits="userSpaceOnUse"><stop offset="0.03" stop-color="#ff7a2f"/><stop offset="0.04" stop-color="#ff7a2f"/><stop offset="0.13" stop-color="#fd6f37"/><stop offset="0.29" stop-color="#f6524c"/><stop offset="0.38" stop-color="#f23e5b"/><stop offset="0.52" stop-color="#d23a7a"/><stop offset="0.85" stop-color="#8a32c1"/><stop offset="1" stop-color="#6d2fdd"/></linearGradient><linearGradient id="b" x1="76.08" y1="78.06" x2="155.07" y2="24.04" gradientTransform="matrix(-0.99, -0.16, -0.16, 0.99, 162.74, 12.6)" gradientUnits="userSpaceOnUse"><stop offset="0.25" stop-color="#6d2fdd"/><stop offset="0.66" stop-color="#f23e5b"/><stop offset="0.89" stop-color="#fc6b3a"/><stop offset="0.96" stop-color="#ff7a2f"/><stop offset="0.98" stop-color="#ff7a2f"/></linearGradient><linearGradient id="c" x1="2.87" y1="60.43" x2="146.92" y2="60.43" xlink:href="#a"/></defs><title>Asset 8</title><g style="isolation:isolate"><g opacity="0.1" style="mix-blend-mode:multiply"><path d="M25.62,33.94c-5.9-13.3,2.36-1.45,3.74-.47,3.5,2.47,8.58,4.74,12.22,7-.62.69-2.39,2.29-3,3-.35.44-.7.87-1,1.33-.23.29-.44.59-.66.89l-.41.57c-.23.32-.44.63-.66.95l-.47.72c-.47.71-.92,1.44-1.34,2.17-.18.31-.36.62-.53.93a.93.93,0,0,0-.05.1c-.18.32-.35.62-.51.94-.35.67-.69,1.34-1,2-.16.33-.32.68-.47,1-.23.52-.46,1.05-.67,1.58-.12.29-.23.58-.35.88a0,0,0,0,0,0,0c-.18.47-.35.94-.52,1.41l-.07.22L41.17,71.12l-4,9.33,1,9.23c9.17,8.89,10,9.39,10.07,9.51l.54-.14c.26-.41-1.17-5.93,1.09-.23a3.18,3.18,0,0,1,.33-.1c.38,0,.76-.19,1.14-.22.53,0,.88.18,1.41.09s1-.12,1.39-.2a25.38,25.38,0,0,0,3.18-1c.12,0,.09-.13.21-.19,7.46-2.73,14.48-7.85,17.25-17.55A41.12,41.12,0,0,0,73.17,51,56.84,56.84,0,0,0,68.42,43c.51-.13,1.16-1,1.66-1.07.15,0,.47-.44.61-.47.65-.13,1.13.34,1.77.26.09,0,.56-2,.82-.24.07,0,.21-.15.28-.15.31,0,.49.13.8.1a29.63,29.63,0,0,1,4.55.1c.06,0,.37.48.43.5,5.19.44,10.17,1.62,13.7,3.81,1.28.79,2.56.43,3.64,1.34,0,0,1.24.6,1.24.62a1.94,1.94,0,0,1,.3.4,21.16,21.16,0,0,0,1.3,2.47c.36.33-.4.48-1.31,1.16-.34.23-.67.48-1,.74-7.89,6.15-13.25,15.68-15,27.06a29.25,29.25,0,0,0-.34,3.31c0,.23,0,.45,0,.68a.41.41,0,0,0,0,.11c-.21,11.3,6.19,20.78,16,22.86,9.48,2,21-3.83,24.63-18.87.09-.35.16-.69.23-1l0-.14c.31-1.51.56-3,.77-4.54v-.09a58.77,58.77,0,0,0,.5-6.74v0a54.68,54.68,0,0,0-.19-5.74.41.41,0,0,0,0-.11c0-.58-.1-1.16-.17-1.74l.11.06.51.32.09,0,.25.17A23.44,23.44,0,0,1,128.25,71c7.45,7.27,11.94,19.77,11.7,32.59l16.47-.58c.35-18.54-6.09-36.09-17.21-46.95a34.67,34.67,0,0,0-19.79-10,2.36,2.36,0,0,0-.29,0c-.7-.08-1.41-.13-2.13-.17l-.67,0c-.31-.51-.63-1-1-1.48-.07-.1-.13-.21-.21-.31-.35-.51-.71-1-1.08-1.51-7-9.27-19.52-20.08-39.77-18.84a40.3,40.3,0,0,0-6.1.85l-.58.13a44.67,44.67,0,0,0-6.48,2,48.19,48.19,0,0,0-5.58,2.55c-.15.07-.29.15-.43.23a95,95,0,0,0-12.85-8.22,109.33,109.33,0,0,0-18.5-7.88l-5,18.54c2.22.69,4.53,1.51,6.86,2.46ZM98.39,82.07c.58-3.74,2.42-10.21,8.15-14.28a1.88,1.88,0,0,1,.23-.16l.4-.24c.87-.43,1.29-.16,1.5.33a6.43,6.43,0,0,1,.28,1.8s1.83,1,1.84,1.07c.14,5.55-1.34,10.14-1.61,12.24a1,1,0,0,1-.05.16h0c-.36.66-2.36.68-2.69,1.37a2.64,2.64,0,0,1-.15.29c-1.24,2.42-2.79,3.43-4.62,3h-.08C100.4,87.44,97.7,86.39,98.39,82.07Zm-54.49-14a30,30,0,0,1,5.91-11.74,49.34,49.34,0,0,1,3.63-4.66,2.12,2.12,0,0,1,.91.32l.27.42c.12.12.12,0,.3.27,1.21,1.56,4.32,5.26,4.56,5.72,1.23,2.31,1.37,5.55,1.76,8.27A13.12,13.12,0,0,1,54.73,79.8c-4.22,2.34-9.88,1.34-11.2-3.61a9,9,0,0,1-.29-2.11A23.88,23.88,0,0,1,43.9,68.05Z" fill="#070707"/><path d="M110.84,43.41c0,.64,1.45,8.06,1.45,8.06l4.94,17s1,2.78,6.58.87a.41.41,0,0,0,0-.11c0-.58-.1-1.16-.17-1.74l.11.06.51.32.09,0,.25.17c.11-9.5-3.66-19.06-5.17-22.07a2.36,2.36,0,0,0-.29,0c-.7-.08-1.41-.13-2.13-.17l-.67,0c-.31-.51-.63-1-1-1.48-.07-.1-.13-.21-.21-.31C113.06,43.52,110.85,43.08,110.84,43.41Z" fill="#070707" opacity="0.1" style="mix-blend-mode:multiply"/><path d="M25.71,34l-.05-.36c1.15.45,2.31.92,3.46,1.44A89.6,89.6,0,0,1,39,40.24l1.48.91c-.42.47-.83.94-1.23,1.43-.19.22-.37.44-.55.67A51.79,51.79,0,0,0,29.92,59L41.21,70.86,40.3,73l-2.2,5.19-.85,2,.24,2.16L38.23,89l.05.38c9.17,8.9,10.14,9.89,10.22,10l.68.25a24.59,24.59,0,0,0,5.29-.49,27,27,0,0,0,3.21-.91A27.59,27.59,0,0,0,75.13,79.5a41.49,41.49,0,0,0-1.92-28.75A47.7,47.7,0,0,0,70.11,45c-.38-.6-.76-1.18-1.15-1.75a2.4,2.4,0,0,0,.66-.33,2.73,2.73,0,0,1,.81-.42c.15,0,.38.34.36.17-.26-3.41-.35-5.53-.33-6.71-1.3-1.94-2.62-3.57-3.61-5.13a22.44,22.44,0,0,0-5.08-4.57c-1.36.52-2.7,1.11-4,1.75-.67.32-1.34.67-2,1l-.14-.11L54.42,28A95.77,95.77,0,0,0,42.9,20.81,115.11,115.11,0,0,0,30.15,15L38.26,3.79,0,16.54,27.43,47.63ZM43.28,73.49A23.77,23.77,0,0,1,44,67.78,30,30,0,0,1,49.86,56c.58-.72,1.19-1.42,1.83-2.11s1-1.07,1.58-1.58c0-.05-.05,0,.1.11.09-.1.05-.23.11-.11a7.69,7.69,0,0,0,.54.71c.09.11.19.24.29.39,1.25,1.69,3.2,4.81,3.42,5.24a24.14,24.14,0,0,1,2.48,7.77c.76,5.35-.94,10.59-5.43,13.08a8.61,8.61,0,0,1-8.35.22,6.61,6.61,0,0,1-3.15-5.94ZM70.46,36c.58.87,1.17,1.81,1.73,2.84C71.38,36,70.52,32.84,70.46,36Zm1.73,2.86c.5,1.74,1,3.38,1.24,3.4.09,0,.19-.05.27-.05A26,26,0,0,0,72.19,38.81Z" fill="#070707"/><path d="M81.82,83.58s0,.07,0,.11c0,9.9,7.27,11.66,7.27,11.66L93,97.07l6.88.43,4.82-1,6-6.44L109.13,83c-.36.66-2.36.68-2.69,1.37a2.64,2.64,0,0,1-.15.29c-1.24,2.42-2.79,3.43-4.62,3C96.78,97.34,83.11,89.06,81.82,83.58Z" fill="#070707" opacity="0.1" style="mix-blend-mode:multiply"/><path d="M97.22,52.53c1.21.93,6.31,5.36,9.32,15.26a1.88,1.88,0,0,1,.23-.16l.4-.24c.87-.43,1.29-.16,1.5.33A10.11,10.11,0,0,0,110,65.24l-.78-8.32-3-5.76L101,48.43,98.59,48l-.37.13a21.16,21.16,0,0,0,1.3,2.47c.36.33-.4.48-1.31,1.16C97.87,52,97.54,52.27,97.22,52.53Z" fill="#070707" opacity="0.1" style="mix-blend-mode:multiply"/><path d="M38.9,72.76l-.8,5.42-.61,4.17-.78,5.24s.55.57,1.52,1.44c3.24,2.91,11.26,9.24,19.45,9.23-11.77-2.33-11.57-14.84-11.25-18.5a6.61,6.61,0,0,1-3.15-5.94v-.33Z" fill="#070707" opacity="0.1" style="mix-blend-mode:multiply"/><path d="M40.45,41.15c-.42.47-.83.94-1.23,1.43,1.55,1.4,5,4.51,12.47,11.35.51-.54,1-1.07,1.58-1.58,0-.05-.05,0,.1.11.09-.1.05-.23.11-.11a7.69,7.69,0,0,0,.54.71c.09.11.19.24.29.39A35,35,0,0,1,70.11,45c-.38-.6-.76-1.18-1.15-1.75a2.4,2.4,0,0,0,.66-.33c-2.05-4-7-12.78-11.87-14.91-.67.32-1.34.67-2,1l-.14-.11L54.42,28c-6,2.19-12.9,9.4-15.45,12.22Z" fill="#070707" opacity="0.1" style="mix-blend-mode:multiply"/><path d="M27.4,75.08c.23,13,7.41,22.43,18.43,24.27l1.09.16a21.09,21.09,0,0,0,2.26.15c.4,0,.8,0,1.2,0a.48.48,0,0,1,.12,0c.38,0,.78-.05,1.16-.08s1.05-.1,1.57-.18A23.9,23.9,0,0,0,58,98.12h0C46,97.55,43.25,85.87,43.57,75.93a50.34,50.34,0,0,1,1-8.27c1.44-7,6.35-12.38,9-15.14l.28-.29c6.89-6.44,13.59-9.12,19.68-9.7l.48-.05a29.62,29.62,0,0,1,5.17.07l.18,0a36.23,36.23,0,0,1,13,4.26c1.51.81,2.86,1.62,4,2.36l.15.1c5.41,4,9.17,10.53,10.67,17.84a34.84,34.84,0,0,1-.07,14.52,23.84,23.84,0,0,1-.8,2.74c-1.79,5.09-5.34,9.47-10.17,10.28-6.46,1.08-13.46-4.7-14.28-12-.53,11.65,6,21.52,16,23.65a19.23,19.23,0,0,0,16.69-4.77c9.14-8.21,10.7-23.45,9-35.36s-6.78-23-14.6-30.53a44.62,44.62,0,0,0-34-12.36,39.6,39.6,0,0,0-6.68,1l-.59.13A50.84,50.84,0,0,0,55.75,29s-10.37,5.82-15.3,12.13c-.62.68-1.21,1.39-1.78,2.1-.36.44-.71.88-1,1.33-.22.29-.44.59-.65.89s-.28.38-.41.57-.45.63-.66,1-.32.48-.47.73c-.47.71-.93,1.43-1.34,2.17-.18.3-.36.62-.54.93a.31.31,0,0,0-.05.1l-.51.94c-.35.67-.69,1.33-1,2-.15.33-.31.67-.46,1-.24.52-.46,1-.67,1.57-.12.3-.24.59-.36.91L30,58.78l-.07.22A47.47,47.47,0,0,0,27.4,75.08Z" fill="#070707"/></g><path d="M26.25,30.15c-5.9-13.3,2.36-1.45,3.75-.47,3.49,2.47,8.57,4.74,12.21,7-.61.69-2.39,2.29-3,3-.35.44-.7.88-1,1.34-.22.28-.44.58-.66.88l-.41.57c-.22.32-.44.63-.65,1s-.32.47-.47.72c-.47.71-.93,1.44-1.34,2.17-.18.3-.37.62-.54.93a.93.93,0,0,0,0,.1c-.17.31-.35.62-.51.94-.35.67-.69,1.34-1,2-.16.33-.31.67-.46,1-.24.52-.47,1-.67,1.58-.13.29-.24.58-.35.88a0,0,0,0,0,0,0c-.18.47-.35.94-.52,1.41l-.07.22L41.8,67.33l-4,9.33,1,9.23c9.18,8.89,10,9.39,10.07,9.5l.55-.13c.25-.41-1.18-5.93,1.08-.23,0,0,.29-.11.33-.11.38,0,.76-.18,1.15-.22s.88.19,1.4.1,1-.12,1.39-.2a24.87,24.87,0,0,0,3.18-1c.12,0,.09-.13.21-.19,7.46-2.73,14.48-7.85,17.25-17.55A41.15,41.15,0,0,0,73.8,47.22a57.24,57.24,0,0,0-4.74-8c.5-.13,1.15-1,1.65-1.07.15,0,.47-.44.62-.47.65-.13,1.12.34,1.76.26.09,0,.56-2,.82-.24.08,0,.21-.15.28-.15.31,0,.49.13.8.1a28.39,28.39,0,0,1,4.55.1c.06,0,.37.48.44.49,5.18.45,10.16,1.63,13.69,3.82,1.28.79,2.56.43,3.64,1.34l1.24.61a1.73,1.73,0,0,1,.3.41,22,22,0,0,0,1.3,2.47c.36.33-.39.48-1.31,1.16-.34.23-.66.48-1,.74C90,54.89,84.6,64.42,82.81,75.8a31.75,31.75,0,0,0-.34,3.31c0,.22,0,.45,0,.68v.11c-.21,11.3,6.2,20.78,16,22.86,9.47,2,21-3.83,24.63-18.88.08-.34.15-.69.22-1l0-.15c.31-1.5.57-3,.77-4.53l0-.09a61.28,61.28,0,0,0,.49-6.74s0,0,0,0a54.68,54.68,0,0,0-.19-5.74.41.41,0,0,0,0-.11c-.05-.58-.1-1.16-.17-1.74l.11.06.51.32s.06,0,.09,0l.25.16a24.09,24.09,0,0,1,3.66,2.9c7.46,7.27,11.94,19.77,11.7,32.59l16.47-.58c.35-18.54-6.09-36.1-17.21-46.95a34.67,34.67,0,0,0-19.78-10l-.29,0c-.71-.07-1.42-.12-2.14-.16L117,42c-.31-.51-.63-1-1-1.48-.07-.1-.13-.21-.21-.31-.34-.51-.7-1-1.07-1.51-7-9.27-19.53-20.08-39.78-18.84a40.66,40.66,0,0,0-6.1.85l-.58.13a44.67,44.67,0,0,0-6.48,2,51.54,51.54,0,0,0-5.58,2.54l-.43.24A95,95,0,0,0,42.91,17.4a109.33,109.33,0,0,0-18.5-7.88l-5,18.54c2.23.69,4.53,1.5,6.86,2.46ZM99,78.28c.58-3.74,2.42-10.21,8.15-14.28a1.88,1.88,0,0,1,.23-.16l.4-.24c.87-.43,1.29-.16,1.5.33a6.36,6.36,0,0,1,.29,1.8s1.82,1,1.83,1.07c.15,5.55-1.34,10.14-1.61,12.24a.44.44,0,0,1,0,.15h0c-.36.67-2.36.68-2.69,1.38a1.59,1.59,0,0,1-.15.29c-1.24,2.42-2.78,3.43-4.62,3h-.07C101,83.65,98.34,82.6,99,78.28Zm-54.48-14a29.92,29.92,0,0,1,5.9-11.73,51,51,0,0,1,3.63-4.66,2.12,2.12,0,0,1,.91.32l.27.42c.12.12.12,0,.3.27,1.22,1.56,4.32,5.26,4.57,5.72,1.22,2.31,1.36,5.55,1.75,8.26A13.14,13.14,0,0,1,55.37,76c-4.23,2.34-9.89,1.34-11.21-3.61a9,9,0,0,1-.29-2.11A23.55,23.55,0,0,1,44.54,64.25Z" fill="url(#a)"/><path d="M111.47,39.62c0,.64,1.45,8.06,1.45,8.06l4.94,17s1,2.77,6.58.87a.41.41,0,0,0,0-.11c-.05-.58-.1-1.16-.17-1.74l.11.06.51.32s.06,0,.09,0l.25.16c.11-9.5-3.66-19.05-5.16-22.06l-.29,0c-.71-.07-1.42-.12-2.14-.16L117,42c-.31-.51-.63-1-1-1.48-.07-.1-.13-.21-.21-.31C113.7,39.73,111.48,39.29,111.47,39.62Z" fill="#070707" opacity="0.1" style="mix-blend-mode:multiply"/><path d="M26.35,30.25l-.05-.36c1.14.45,2.3.92,3.45,1.44a89.73,89.73,0,0,1,9.86,5.12l1.47.9c-.42.48-.83.95-1.23,1.43l-.55.68a51.79,51.79,0,0,0-8.75,15.75L41.84,67.06l-.91,2.14-2.2,5.19-.85,2,.24,2.16.74,6.68,0,.38c9.17,8.89,10.14,9.89,10.22,10l.68.24a24.57,24.57,0,0,0,5.29-.48,25.32,25.32,0,0,0,3.21-.92A27.56,27.56,0,0,0,75.76,75.71,41.38,41.38,0,0,0,73.84,47a47,47,0,0,0-3.1-5.76c-.38-.6-.76-1.19-1.15-1.75a2.6,2.6,0,0,0,.67-.33,2.48,2.48,0,0,1,.8-.42c.16,0,.38.34.36.17-.26-3.41-.35-5.53-.33-6.71-1.3-1.94-2.62-3.57-3.61-5.13a22.68,22.68,0,0,0-5.08-4.58c-1.36.53-2.7,1.11-4,1.76-.67.32-1.34.67-2,1l-.15-.11-1.19-.89A94.9,94.9,0,0,0,43.54,17a112.52,112.52,0,0,0-12.76-5.86L38.89,0,.63,12.75,28.06,43.84ZM43.92,69.69a23.26,23.26,0,0,1,.66-5.7,30,30,0,0,1,5.91-11.74c.58-.72,1.19-1.42,1.84-2.11s1-1.07,1.57-1.59c.05,0,0,0,.1.12.09-.11,0-.23.11-.11a6.77,6.77,0,0,0,.54.7l.3.4c1.25,1.69,3.19,4.81,3.42,5.24a24.3,24.3,0,0,1,2.47,7.77c.76,5.35-.94,10.59-5.43,13.08a8.63,8.63,0,0,1-8.35.22A6.58,6.58,0,0,1,43.92,70ZM71.09,32.16C71.68,33,72.26,34,72.82,35,72,32.16,71.15,29.05,71.09,32.16ZM72.82,35c.5,1.74,1,3.38,1.25,3.4a1.19,1.19,0,0,1,.26-.05A26,26,0,0,0,72.82,35Z" fill="url(#b)"/><path d="M82.45,79.79s0,.07,0,.11c0,9.9,7.27,11.66,7.27,11.66l3.92,1.72,6.88.43,4.83-1,6-6.44-1.55-7.08c-.36.67-2.36.68-2.69,1.38a1.59,1.59,0,0,1-.15.29c-1.24,2.42-2.78,3.43-4.62,3C97.42,93.55,83.74,85.27,82.45,79.79Z" fill="#070707" opacity="0.1" style="mix-blend-mode:multiply"/><path d="M97.86,48.74c1.2.93,6.3,5.36,9.31,15.26a1.88,1.88,0,0,1,.23-.16l.4-.24c.87-.43,1.29-.16,1.5.33a10.11,10.11,0,0,0,1.32-2.48l-.78-8.32-3-5.76-5.24-2.73-2.39-.4-.37.13a22,22,0,0,0,1.3,2.47c.36.33-.39.48-1.31,1.16C98.5,48.23,98.18,48.48,97.86,48.74Z" fill="#070707" opacity="0.1" style="mix-blend-mode:multiply"/><path d="M39.53,69l-.8,5.43-.61,4.17-.77,5.24s.54.57,1.51,1.44c3.25,2.91,11.26,9.23,19.45,9.22C46.54,92.13,46.74,79.63,47.06,76A6.58,6.58,0,0,1,43.92,70v-.34Z" fill="#070707" opacity="0.1" style="mix-blend-mode:multiply"/><path d="M41.08,37.35c-.42.48-.83.95-1.23,1.43L52.33,50.14c.5-.54,1-1.07,1.57-1.59.05,0,0,0,.1.12.09-.11,0-.23.11-.11a6.77,6.77,0,0,0,.54.7l.3.4A35,35,0,0,1,70.74,41.2c-.38-.6-.76-1.19-1.15-1.75a2.6,2.6,0,0,0,.67-.33c-2.06-4-7-12.79-11.88-14.91-.67.32-1.34.67-2,1l-.15-.11-1.19-.89c-6,2.19-12.9,9.39-15.44,12.22Z" fill="#070707" opacity="0.1" style="mix-blend-mode:multiply"/><path d="M28,71.29c.23,13,7.41,22.43,18.43,24.26l1.09.16a16.93,16.93,0,0,0,2.26.15c.4,0,.81,0,1.2,0a.24.24,0,0,1,.12,0l1.16-.08c.53,0,1.05-.1,1.57-.18a24,24,0,0,0,4.8-1.27h0C46.58,93.76,43.88,82.08,44.2,72.14a50.34,50.34,0,0,1,1-8.27c1.45-7,6.35-12.38,9.05-15.15l.28-.29c6.88-6.43,13.58-9.11,19.67-9.69a3.91,3.91,0,0,1,.48-.05,28.65,28.65,0,0,1,5.17.07l.18,0A36.35,36.35,0,0,1,93,43c1.51.81,2.85,1.61,4,2.36l.15.1c5.41,4,9.18,10.53,10.67,17.84a34.84,34.84,0,0,1-.07,14.52,24.44,24.44,0,0,1-.8,2.74c-1.79,5.09-5.34,9.47-10.17,10.28-6.46,1.08-13.46-4.7-14.28-12-.53,11.64,6,21.52,16,23.64a19.2,19.2,0,0,0,16.69-4.76c9.14-8.21,10.7-23.45,9-35.36-1.66-11.76-6.78-23-14.6-30.53a44.58,44.58,0,0,0-34-12.36,39.74,39.74,0,0,0-6.68,1l-.59.13a50.6,50.6,0,0,0-11.9,4.64S46,31.05,41.08,37.35c-.61.69-1.21,1.39-1.78,2.11-.35.44-.7.88-1,1.33-.22.29-.44.59-.65.89s-.28.38-.41.57-.45.63-.66,1-.32.48-.47.73c-.47.71-.92,1.43-1.34,2.17-.18.3-.36.62-.53.92l-.06.1-.51,1c-.35.66-.69,1.33-1,2-.15.33-.31.67-.46,1-.24.53-.46,1-.67,1.58-.12.3-.24.59-.35.91s-.35.93-.52,1.4c0,.08-.06.16-.08.23A47.47,47.47,0,0,0,28,71.29Z" fill="url(#c)"/></g></svg>