<svg xmlns="http://www.w3.org/2000/svg" xmlns:xlink="http://www.w3.org/1999/xlink" viewBox="0 0 208.57 159.8"><defs><linearGradient id="a" x1="110.96" y1="-0.96" x2="110.96" y2="94.05" gradientUnits="userSpaceOnUse"><stop offset="0" stop-color="#6e0aff"/><stop offset="0.91" stop-color="#2568fe"/></linearGradient><linearGradient id="b" x1="36.99" y1="-0.96" x2="36.99" y2="94.05" xlink:href="#a"/><linearGradient id="c" x1="231.92" y1="97.61" x2="-22.77" y2="97.61" gradientUnits="userSpaceOnUse"><stop offset="0" stop-color="#ff9879"/><stop offset="0.62" stop-color="#a0f"/><stop offset="1" stop-color="#4201a5"/></linearGradient><linearGradient id="d" x1="52.83" y1="102.23" x2="52.83" y2="159.05" gradientUnits="userSpaceOnUse"><stop offset="0" stop-color="#ff9800"/><stop offset="1" stop-color="#a0f"/></linearGradient></defs><title>Asset 2</title><path d="M148,37V60.62H74V37A37,37,0,0,1,111,0h0A37,37,0,0,1,148,37Z" fill="url(#a)"/><path d="M95,3.61a37,37,0,0,1,42.6,36.56V60.62H148V37A37,37,0,0,0,95,3.61Z" fill="#fff" opacity="0.2"/><path d="M74,37V60.62H0V37A37,37,0,0,1,37,0h0A37,37,0,0,1,74,37Z" fill="url(#b)"/><path d="M21,3.61A37,37,0,0,1,63.63,40.17V60.62H74V37A37,37,0,0,0,21,3.61Z" fill="#fff" opacity="0.2"/><path d="M171.58,60.62H0V92.43H142.78A5.17,5.17,0,0,1,148,97.61h0a5.16,5.16,0,0,1-5.17,5.17H0V134.6H171.58a37,37,0,0,0,37-37h0A37,37,0,0,0,171.58,60.62Z" fill="url(#c)"/><path d="M205,81.65a37,37,0,0,1-36.56,42.59H0v10.34H171.59a36.85,36.85,0,0,0,25.65-10.34c.17-.15.33-.31.5-.48A37,37,0,0,0,205,81.65Z" fill="#fff" opacity="0.2"/><polygon points="73.98 159.8 52.83 150.3 31.69 159.8 31.69 102.78 73.98 102.78 73.98 159.8" fill="url(#d)"/><polygon points="73.98 159.8 52.83 150.3 52.83 102.78 73.98 102.78 73.98 159.8" fill="#fff" opacity="0.2"/></svg>